<svg xmlns="http://www.w3.org/2000/svg" version="1.1" width="1080px" height="1080px" style="shape-rendering:geometricPrecision; text-rendering:geometricPrecision; image-rendering:optimizeQuality; fill-rule:evenodd; clip-rule:evenodd" xmlns:xlink="http://www.w3.org/1999/xlink">
<g></g>
<g><path style="opacity: 1; visibility: hidden;" fill="#fefefe" d="M 570.5,-0.5 C 740.167,-0.5 909.833,-0.5 1079.5,-0.5C 1079.5,165.167 1079.5,330.833 1079.5,496.5C 1078.83,494.167 1078.17,491.833 1077.5,489.5C 1059.25,327.581 985.248,198.081 855.5,101C 784.216,50.3694 705.216,18.5361 618.5,5.5C 613.06,3.93862 607.394,2.93862 601.5,2.5C 590.973,2.01359 580.639,1.01359 570.5,-0.5 Z" data-index="1"></path></g>
<g><path style="opacity: 1; visibility: visible;" fill="#d89206" d="M 509.5,-0.5 C 529.833,-0.5 550.167,-0.5 570.5,-0.5C 580.639,1.01359 590.973,2.01359 601.5,2.5C 606.854,4.50746 612.521,5.50746 618.5,5.5C 705.216,18.5361 784.216,50.3694 855.5,101C 985.248,198.081 1059.25,327.581 1077.5,489.5C 1077.7,496.026 1078.36,502.359 1079.5,508.5C 1079.5,528.5 1079.5,548.5 1079.5,568.5C 1078.28,579.334 1077.28,590.334 1076.5,601.5C 1075.11,606.269 1074.44,611.269 1074.5,616.5C 1070.84,635.158 1067.17,653.824 1063.5,672.5C 1062.08,674.515 1061.41,676.848 1061.5,679.5C 1060.08,681.515 1059.41,683.848 1059.5,686.5C 1057.72,689.505 1056.72,692.838 1056.5,696.5C 1054.72,699.505 1053.72,702.838 1053.5,706.5C 997.223,866.779 890.557,979.446 733.5,1044.5C 724.086,1046.53 715.086,1049.53 706.5,1053.5C 703.848,1053.41 701.515,1054.08 699.5,1055.5C 685.885,1059.65 672.219,1063.32 658.5,1066.5C 653.717,1067.51 649.05,1068.51 644.5,1069.5C 628.269,1072.49 611.936,1074.82 595.5,1076.5C 582.339,1077.36 569.339,1078.36 556.5,1079.5C 540.167,1079.5 523.833,1079.5 507.5,1079.5C 341.508,1065.93 207.675,993.599 106,862.5C 65.2488,806.996 35.7488,745.996 17.5,679.5C 17.5905,676.848 16.9238,674.515 15.5,672.5C 7.76246,639.413 2.42912,606.08 -0.5,572.5C -0.5,551.5 -0.5,530.5 -0.5,509.5C 0.451181,502.005 1.11785,494.339 1.5,486.5C 2.97151,482.081 3.63818,477.414 3.5,472.5C 3.5,472.167 3.5,471.833 3.5,471.5C 4.88899,466.731 5.55565,461.731 5.5,456.5C 7.52978,442.907 10.1964,429.574 13.5,416.5C 14.9238,414.485 15.5905,412.152 15.5,409.5C 34.2952,331.578 68.7952,261.578 119,199.5C 199.755,101.639 302.255,38.9726 426.5,11.5C 431.45,11.2301 436.117,10.2301 440.5,8.5C 446.194,8.75991 451.527,7.75991 456.5,5.5C 464.426,4.18947 472.426,3.18947 480.5,2.5C 489.528,2.53992 498.528,2.03992 507.5,1C 508.416,0.721579 509.082,0.221579 509.5,-0.5 Z" data-index="2"></path></g>
<g><path style="opacity:1" fill="#e3ae49" d="M 501.5,-0.5 C 504.167,-0.5 506.833,-0.5 509.5,-0.5C 509.082,0.221579 508.416,0.721579 507.5,1C 498.528,2.03992 489.528,2.53992 480.5,2.5C 487.507,1.55989 494.507,0.559885 501.5,-0.5 Z" data-index="3"></path></g>
<g><path style="opacity:1" fill="#e6b75a" d="M 601.5,2.5 C 607.394,2.93862 613.06,3.93862 618.5,5.5C 612.521,5.50746 606.854,4.50746 601.5,2.5 Z" data-index="4"></path></g>
<g><path style="opacity:1" fill="#e4af4a" d="M 456.5,5.5 C 451.527,7.75991 446.194,8.75991 440.5,8.5C 445.606,6.95562 450.939,5.95562 456.5,5.5 Z" data-index="5"></path></g>
<g><path style="opacity:1" fill="#e5b353" d="M 440.5,8.5 C 436.117,10.2301 431.45,11.2301 426.5,11.5C 430.883,9.76989 435.55,8.76989 440.5,8.5 Z" data-index="6"></path></g>
<g><path style="opacity: 1; visibility: visible;" fill="#f4ddb1" d="M 566.5,35.5 C 543.497,35.6796 520.497,36.0129 497.5,36.5C 510.798,34.9722 524.298,34.3055 538,34.5C 547.673,34.5002 557.173,34.8335 566.5,35.5 Z" data-index="7"></path></g>
<g><path style="opacity: 1; visibility: visible;" fill="#fefefe" d="M 566.5,35.5 C 570.198,35.5524 573.865,35.8857 577.5,36.5C 583.979,37.5979 590.646,38.2646 597.5,38.5C 614.973,40.2612 632.306,42.9279 649.5,46.5C 649.611,47.1174 649.944,47.6174 650.5,48C 654.754,49.3141 659.087,50.1474 663.5,50.5C 817.671,92.5134 929.505,185.513 999,329.5C 1019.71,375.122 1033.21,422.789 1039.5,472.5C 1039.85,476.684 1040.52,480.684 1041.5,484.5C 1045.62,523.859 1045.29,563.192 1040.5,602.5C 1039.03,606.919 1038.36,611.586 1038.5,616.5C 1035.14,635.274 1031.14,653.941 1026.5,672.5C 1025.08,674.515 1024.41,676.848 1024.5,679.5C 1023.08,681.515 1022.41,683.848 1022.5,686.5C 1020.72,689.505 1019.72,692.838 1019.5,696.5C 974.893,825.948 892.226,923.115 771.5,988C 753.159,997.006 734.492,1005.17 715.5,1012.5C 711.064,1013.41 707.064,1015.08 703.5,1017.5C 688.505,1021.6 673.505,1025.77 658.5,1030C 644.504,1033.07 630.504,1035.9 616.5,1038.5C 611.586,1038.36 606.919,1039.03 602.5,1040.5C 599.061,1040.25 595.728,1040.59 592.5,1041.5C 584.325,1041.84 576.325,1042.51 568.5,1043.5C 553.172,1044.03 537.839,1044.36 522.5,1044.5C 512.809,1044.16 503.142,1043.5 493.5,1042.5C 486.668,1041.27 479.668,1040.27 472.5,1039.5C 330.496,1018.55 216.662,950.885 131,836.5C 94.2851,785.066 67.7851,728.732 51.5,667.5C 50.8133,661.751 49.6466,656.084 48,650.5C 47.6174,649.944 47.1174,649.611 46.5,649.5C 42.7991,631.994 40.1324,614.327 38.5,596.5C 38.4138,589.963 37.7472,583.63 36.5,577.5C 34.3046,554.387 33.9713,531.387 35.5,508.5C 37.1827,496.348 38.516,484.015 39.5,471.5C 41.4719,450.656 45.4719,430.323 51.5,410.5C 53.2766,407.495 54.2766,404.162 54.5,400.5C 55.9238,398.485 56.5905,396.152 56.5,393.5C 58.2766,390.495 59.2766,387.162 59.5,383.5C 107.758,242.069 199.758,139.902 335.5,77C 342.078,74.2087 348.745,71.7087 355.5,69.5C 360.767,68.4111 365.767,66.7444 370.5,64.5C 375.393,63.2042 380.06,61.5376 384.5,59.5C 384.842,58.6618 385.508,58.3284 386.5,58.5C 389.152,58.5905 391.485,57.9238 393.5,56.5C 396.657,54.9995 399.991,53.9995 403.5,53.5C 406.152,53.5905 408.485,52.9238 410.5,51.5C 424.16,47.4404 438.16,44.4404 452.5,42.5C 459.111,42.4527 465.444,41.4527 471.5,39.5C 478.749,39.3216 485.749,38.3216 492.5,36.5C 494.167,36.5 495.833,36.5 497.5,36.5C 520.497,36.0129 543.497,35.6796 566.5,35.5 Z" data-index="8"></path></g>
<g><path style="opacity:1" fill="#f2d7a4" d="M 492.5,36.5 C 485.749,38.3216 478.749,39.3216 471.5,39.5C 478.264,37.7646 485.264,36.7646 492.5,36.5 Z" data-index="9"></path></g>
<g><path style="opacity:1" fill="#f5e2bd" d="M 577.5,36.5 C 584.424,36.0678 591.091,36.7345 597.5,38.5C 590.646,38.2646 583.979,37.5979 577.5,36.5 Z" data-index="10"></path></g>
<g><path style="opacity:1" fill="#f7e7c8" d="M 471.5,39.5 C 465.444,41.4527 459.111,42.4527 452.5,42.5C 458.569,40.6246 464.902,39.6246 471.5,39.5 Z" data-index="11"></path></g>
<g><path style="opacity:1" fill="#f4deb3" d="M 649.5,46.5 C 654.356,47.5437 659.022,48.877 663.5,50.5C 659.087,50.1474 654.754,49.3141 650.5,48C 649.944,47.6174 649.611,47.1174 649.5,46.5 Z" data-index="12"></path></g>
<g><path style="opacity:1" fill="#f4ddb2" d="M 410.5,51.5 C 408.485,52.9238 406.152,53.5905 403.5,53.5C 405.515,52.0762 407.848,51.4095 410.5,51.5 Z" data-index="13"></path></g>
<g><path style="opacity:1" fill="#f4ddb3" d="M 393.5,56.5 C 391.485,57.9238 389.152,58.5905 386.5,58.5C 388.515,57.0762 390.848,56.4095 393.5,56.5 Z" data-index="14"></path></g>
<g><path style="opacity:1" fill="#f5e0b9" d="M 384.5,59.5 C 380.06,61.5376 375.393,63.2042 370.5,64.5C 374.63,61.6761 379.297,60.0094 384.5,59.5 Z" data-index="15"></path></g>
<g><path style="opacity:1" fill="#f7e6c5" d="M 370.5,64.5 C 365.767,66.7444 360.767,68.4111 355.5,69.5C 360.085,66.8605 365.085,65.1938 370.5,64.5 Z" data-index="16"></path></g>
<g><path style="opacity: 1;" fill="#a5d7a6" d="M 343.5,272.5 C 271.5,272.5 199.5,272.5 127.5,272.5C 127.5,451.167 127.5,629.833 127.5,808.5C 127.5,808.833 127.5,809.167 127.5,809.5C 126.5,630.334 126.167,451.001 126.5,271.5C 199.002,271.167 271.335,271.501 343.5,272.5 Z" data-index="17"></path></g>
<g><path style="opacity: 1;" fill="#a5d7a6" d="M 817.5,272.5 C 743.833,272.5 670.167,272.5 596.5,272.5C 596.5,451.5 596.5,630.5 596.5,809.5C 595.5,630.334 595.167,451.001 595.5,271.5C 669.669,271.167 743.669,271.501 817.5,272.5 Z" data-index="18"></path></g>
<g><path style="opacity: 1;" fill="#4baf4f" d="M 343.5,272.5 C 394.999,273.501 437.499,293.501 471,332.5C 512.035,385.081 520.035,442.414 495,504.5C 474.753,547.253 442.587,576.919 398.5,593.5C 400.021,597.559 401.854,601.559 404,605.5C 444.293,673.251 484.459,741.084 524.5,809C 497.928,809.828 471.428,809.661 445,808.5C 404.967,740.63 365.134,672.63 325.5,604.5C 283.172,603.5 240.839,603.167 198.5,603.5C 197.501,671.665 197.167,739.998 197.5,808.5C 174.167,808.5 150.833,808.5 127.5,808.5C 127.5,629.833 127.5,451.167 127.5,272.5C 199.5,272.5 271.5,272.5 343.5,272.5 Z" data-index="19"></path></g>
<g><path style="opacity: 1; visibility: visible;" fill="#4baf4f" d="M 817.5,272.5 C 869.146,274.901 909.646,297.234 939,339.5C 967.425,388.741 968.758,438.741 943,489.5C 932.734,505.933 919.567,519.6 903.5,530.5C 964.952,564.071 990.786,615.738 981,685.5C 970.521,735.989 942.021,772.489 895.5,795C 875.772,803.734 855.105,808.4 833.5,809C 754.501,809.5 675.501,809.667 596.5,809.5C 596.5,630.5 596.5,451.5 596.5,272.5C 670.167,272.5 743.833,272.5 817.5,272.5 Z" data-index="20"></path></g>
<g><path style="opacity: 1;" fill="#fefefe" d="M 198.5,338.5 C 247.501,338.333 296.501,338.5 345.5,339C 385.372,343.025 413.872,363.192 431,399.5C 443.731,436.075 439.064,470.075 417,501.5C 398.432,524.702 374.265,537.202 344.5,539C 295.834,539.5 247.168,539.667 198.5,539.5C 198.5,472.5 198.5,405.5 198.5,338.5 Z" data-index="21"></path></g>
<g><path style="opacity: 1;" fill="#fefefe" d="M 667.5,338.5 C 715.834,338.333 764.168,338.5 812.5,339C 838.531,340.597 859.364,351.764 875,372.5C 889.977,394.1 894.31,417.767 888,443.5C 877.973,475.197 856.806,494.697 824.5,502C 772.168,502.5 719.834,502.667 667.5,502.5C 667.5,447.833 667.5,393.167 667.5,338.5 Z" data-index="22"></path></g>
<g><path style="opacity:1" fill="#f3daaa" d="M 59.5,383.5 C 59.2766,387.162 58.2766,390.495 56.5,393.5C 56.7234,389.838 57.7234,386.505 59.5,383.5 Z" data-index="23"></path></g>
<g><path style="opacity:1" fill="#f3dbae" d="M 56.5,393.5 C 56.5905,396.152 55.9238,398.485 54.5,400.5C 54.4095,397.848 55.0762,395.515 56.5,393.5 Z" data-index="24"></path></g>
<g><path style="opacity: 1;" fill="#f3dcaf" d="M 54.5,400.5 C 54.2766,404.162 53.2766,407.495 51.5,410.5C 51.7234,406.838 52.7234,403.505 54.5,400.5 Z" data-index="25"></path></g>
<g><path style="opacity:1" fill="#e7ba61" d="M 15.5,409.5 C 15.5905,412.152 14.9238,414.485 13.5,416.5C 13.4095,413.848 14.0762,411.515 15.5,409.5 Z" data-index="26"></path></g>
<g><path style="opacity:1" fill="#eac172" d="M 5.5,456.5 C 5.55565,461.731 4.88899,466.731 3.5,471.5C 3.44435,466.269 4.11101,461.269 5.5,456.5 Z" data-index="27"></path></g>
<g><path style="opacity:1" fill="#eabe6d" d="M 1039.5,472.5 C 1041.25,476.183 1041.92,480.183 1041.5,484.5C 1040.52,480.684 1039.85,476.684 1039.5,472.5 Z" data-index="28"></path></g>
<g><path style="opacity:1" fill="#e9bf6d" d="M 3.5,472.5 C 3.63818,477.414 2.97151,482.081 1.5,486.5C 1.36182,481.586 2.02849,476.919 3.5,472.5 Z" data-index="29"></path></g>
<g><path style="opacity:1" fill="#f6e6c5" d="M 1077.5,489.5 C 1078.17,491.833 1078.83,494.167 1079.5,496.5C 1079.5,500.5 1079.5,504.5 1079.5,508.5C 1078.36,502.359 1077.7,496.026 1077.5,489.5 Z" data-index="30"></path></g>
<g><path style="opacity: 1;" fill="#f3dbac" d="M 39.5,471.5 C 38.516,484.015 37.1827,496.348 35.5,508.5C 35.7184,495.901 37.0517,483.568 39.5,471.5 Z" data-index="31"></path></g>
<g><path style="opacity: 1;" fill="#79c379" d="M 828.5,568.5 C 774.833,568.5 721.167,568.5 667.5,568.5C 667.5,626.5 667.5,684.5 667.5,742.5C 666.501,684.336 666.168,626.002 666.5,567.5C 720.669,567.168 774.669,567.501 828.5,568.5 Z" data-index="32"></path></g>
<g><path style="opacity: 1; visibility: visible;" fill="#fefefe" d="M 828.5,568.5 C 865.561,570.357 891.728,588.357 907,622.5C 918.469,656.725 912.802,687.725 890,715.5C 876.289,730.272 859.455,739.106 839.5,742C 782.168,742.5 724.834,742.667 667.5,742.5C 667.5,684.5 667.5,626.5 667.5,568.5C 721.167,568.5 774.833,568.5 828.5,568.5 Z" data-index="33"></path></g>
<g></g>
<g><path style="opacity: 1; visibility: hidden;" fill="#fefefe" d="M 1079.5,568.5 C 1079.5,738.833 1079.5,909.167 1079.5,1079.5C 911.833,1079.5 744.167,1079.5 576.5,1079.5C 582.895,1078.92 589.229,1077.92 595.5,1076.5C 611.936,1074.82 628.269,1072.49 644.5,1069.5C 649.596,1069.96 654.262,1068.96 658.5,1066.5C 672.219,1063.32 685.885,1059.65 699.5,1055.5C 702.152,1055.59 704.485,1054.92 706.5,1053.5C 715.767,1051.08 724.767,1048.08 733.5,1044.5C 890.557,979.446 997.223,866.779 1053.5,706.5C 1055.28,703.495 1056.28,700.162 1056.5,696.5C 1058.28,693.495 1059.28,690.162 1059.5,686.5C 1060.92,684.485 1061.59,682.152 1061.5,679.5C 1063.16,677.562 1063.83,675.228 1063.5,672.5C 1067.17,653.824 1070.84,635.158 1074.5,616.5C 1075.89,611.731 1076.56,606.731 1076.5,601.5C 1077.28,590.334 1078.28,579.334 1079.5,568.5 Z" data-index="35"></path></g>
<g><path style="opacity: 1;" fill="#f7e7c9" d="M 36.5,577.5 C 37.7472,583.63 38.4138,589.963 38.5,596.5C 37.71,595.391 37.21,594.058 37,592.5C 36.5007,587.511 36.3341,582.511 36.5,577.5 Z" data-index="36"></path></g>
<g><path style="opacity: 1; visibility: visible;" fill="#79c379" d="M 198.5,603.5 C 198.5,672.167 198.5,740.833 198.5,809.5C 174.833,809.5 151.167,809.5 127.5,809.5C 127.5,809.167 127.5,808.833 127.5,808.5C 150.833,808.5 174.167,808.5 197.5,808.5C 197.167,739.998 197.501,671.665 198.5,603.5 Z" data-index="37"></path></g>
<g><path style="opacity:1" fill="#f4dfb5" d="M 1076.5,601.5 C 1076.56,606.731 1075.89,611.731 1074.5,616.5C 1074.44,611.269 1075.11,606.269 1076.5,601.5 Z" data-index="38"></path></g>
<g><path style="opacity: 1; visibility: visible;" fill="#e7ba61" d="M 1040.5,602.5 C 1040.64,607.414 1039.97,612.081 1038.5,616.5C 1038.36,611.586 1039.03,606.919 1040.5,602.5 Z" data-index="39"></path></g>
<g><path style="opacity: 1;" fill="#f4ddb2" d="M 46.5,649.5 C 47.1174,649.611 47.6174,649.944 48,650.5C 49.6466,656.084 50.8133,661.751 51.5,667.5C 49.5441,661.688 47.8774,655.688 46.5,649.5 Z" data-index="40"></path></g>
<g><path style="opacity:1" fill="#e9be6c" d="M 1026.5,672.5 C 1026.59,675.152 1025.92,677.485 1024.5,679.5C 1024.41,676.848 1025.08,674.515 1026.5,672.5 Z" data-index="41"></path></g>
<g><path style="opacity: 1; visibility: visible;" fill="#f3dbad" d="M 15.5,672.5 C 16.9238,674.515 17.5905,676.848 17.5,679.5C 16.0762,677.485 15.4095,675.152 15.5,672.5 Z" data-index="42"></path></g>
<g><path style="opacity:1" fill="#f3dcaf" d="M 1063.5,672.5 C 1063.83,675.228 1063.16,677.562 1061.5,679.5C 1061.41,676.848 1062.08,674.515 1063.5,672.5 Z" data-index="43"></path></g>
<g><path style="opacity: 1; visibility: visible;" fill="#e8bb64" d="M 1024.5,679.5 C 1024.59,682.152 1023.92,684.485 1022.5,686.5C 1022.41,683.848 1023.08,681.515 1024.5,679.5 Z" data-index="44"></path></g>
<g><path style="opacity:1" fill="#f2d7a3" d="M 1061.5,679.5 C 1061.59,682.152 1060.92,684.485 1059.5,686.5C 1059.41,683.848 1060.08,681.515 1061.5,679.5 Z" data-index="45"></path></g>
<g><path style="opacity:1" fill="#e9bc67" d="M 1022.5,686.5 C 1022.28,690.162 1021.28,693.495 1019.5,696.5C 1019.72,692.838 1020.72,689.505 1022.5,686.5 Z" data-index="46"></path></g>
<g><path style="opacity: 1; visibility: visible;" fill="#f3daa9" d="M 1059.5,686.5 C 1059.28,690.162 1058.28,693.495 1056.5,696.5C 1056.72,692.838 1057.72,689.505 1059.5,686.5 Z" data-index="47"></path></g>
<g><path style="opacity:1" fill="#f3dbac" d="M 1056.5,696.5 C 1056.28,700.162 1055.28,703.495 1053.5,706.5C 1053.72,702.838 1054.72,699.505 1056.5,696.5 Z" data-index="48"></path></g>
<g><path style="opacity:1" fill="#e7b85e" d="M 715.5,1012.5 C 711.936,1014.92 707.936,1016.59 703.5,1017.5C 707.064,1015.08 711.064,1013.41 715.5,1012.5 Z" data-index="49"></path></g>
<g><path style="opacity:1" fill="#e7b85d" d="M 616.5,1038.5 C 612.081,1039.97 607.414,1040.64 602.5,1040.5C 606.919,1039.03 611.586,1038.36 616.5,1038.5 Z" data-index="50"></path></g>
<g><path style="opacity:1" fill="#e9bc67" d="M 472.5,1039.5 C 479.668,1040.27 486.668,1041.27 493.5,1042.5C 486.813,1042.33 480.146,1041.83 473.5,1041C 472.944,1040.62 472.611,1040.12 472.5,1039.5 Z" data-index="51"></path></g>
<g><path style="opacity:1" fill="#e7b85d" d="M 592.5,1041.5 C 584.736,1043.22 576.736,1043.88 568.5,1043.5C 576.325,1042.51 584.325,1041.84 592.5,1041.5 Z" data-index="52"></path></g>
<g><path style="opacity:1" fill="#e0a939" d="M 568.5,1043.5 C 559.039,1044.93 549.372,1045.6 539.5,1045.5C 533.657,1045.5 527.99,1045.17 522.5,1044.5C 537.839,1044.36 553.172,1044.03 568.5,1043.5 Z" data-index="53"></path></g>
<g><path style="opacity:1" fill="#f5e1ba" d="M 733.5,1044.5 C 724.767,1048.08 715.767,1051.08 706.5,1053.5C 715.086,1049.53 724.086,1046.53 733.5,1044.5 Z" data-index="54"></path></g>
<g><path style="opacity:1" fill="#f4ddb0" d="M 706.5,1053.5 C 704.485,1054.92 702.152,1055.59 699.5,1055.5C 701.515,1054.08 703.848,1053.41 706.5,1053.5 Z" data-index="55"></path></g>
<g><path style="opacity:1" fill="#f6e3bf" d="M 658.5,1066.5 C 654.262,1068.96 649.596,1069.96 644.5,1069.5C 649.05,1068.51 653.717,1067.51 658.5,1066.5 Z" data-index="56"></path></g>
<g><path style="opacity:1" fill="#f1d59e" d="M 595.5,1076.5 C 589.229,1077.92 582.895,1078.92 576.5,1079.5C 569.833,1079.5 563.167,1079.5 556.5,1079.5C 569.339,1078.36 582.339,1077.36 595.5,1076.5 Z" data-index="57"></path></g>
</svg>